<svg xmlns="http://www.w3.org/2000/svg" width="20" height="20" viewBox="0 0 20 20">
    <g fill="none" fill-rule="evenodd">
        <path d="M-2-2h24v24H-2z"/>
        <path fill="#12A736" d="M10 0C4.47 0 0 4.47 0 10s4.47 10 10 10 10-4.47 10-10S15.53 0 10 0z"/>
        <path fill="#FFF" fill-rule="nonzero" d="M4.5 14.61h2.182V8.063H4.5v6.545zm12-6c0-.6-.49-1.092-1.09-1.092h-3.443l.518-2.493.017-.174a.821.821 0 0 0-.24-.578l-.578-.573-3.59 3.595c-.201.196-.321.469-.321.769v5.454c0 .6.49 1.091 1.09 1.091h4.91c.452 0 .84-.273 1.003-.665l1.648-3.846c.049-.125.076-.256.076-.398V8.658l-.005-.005.005-.044z"/>
    </g>
</svg>
