<svg xmlns="http://www.w3.org/2000/svg" width="20" height="20" viewBox="0 0 20 20">
    <g fill="none" fill-rule="evenodd">
        <path d="M-2-2h24v24H-2z"/>
        <path fill="#EAC92C" d="M10 0C4.47 0 0 4.47 0 10s4.47 10 10 10 10-4.47 10-10S15.53 0 10 0z"/>
        <path fill="#FFF" fill-rule="nonzero" d="M15.785 14.362l-5.369-5.37c.531-1.357.236-2.95-.885-4.07-1.18-1.18-2.95-1.417-4.366-.768l2.537 2.537-1.77 1.77-2.596-2.537c-.708 1.416-.413 3.186.767 4.366 1.12 1.121 2.714 1.416 4.071.885l5.37 5.37a.57.57 0 0 0 .825 0l1.357-1.357c.295-.236.295-.65.06-.826z"/>
    </g>
</svg>
