<svg xmlns="http://www.w3.org/2000/svg" width="20" height="20" viewBox="0 0 20 20">
    <g fill="none" fill-rule="evenodd">
        <path fill="#EE6868" fill-rule="nonzero" d="M10 0C4.47 0 0 4.47 0 10s4.47 10 10 10 10-4.47 10-10S15.53 0 10 0zm5.5 13.949L13.949 15.5 10 11.551 6.051 15.5 4.5 13.949 8.449 10 4.5 6.051 6.051 4.5 10 8.449 13.949 4.5 15.5 6.051 11.551 10l3.949 3.949zm-.75.051l-.75.75-4-4-4 4-.75-.75 4-4-4-4L6 5.25l4 4 4-4 .75.75-4 4 4 4z"/>
        <path d="M-2-2h24v24H-2z"/>
    </g>
</svg>
