<svg xmlns="http://www.w3.org/2000/svg" width="37" height="32" viewBox="0 0 37 32">
    <g fill="none" fill-rule="evenodd">
        <rect width="36" height="31" x=".5" y=".5" fill="#EBEBEB" stroke="#8D8D8D" rx="8"/>
        <path fill="#3B3B3B" fill-rule="nonzero" d="M22.936 18.364h-.828l-.294-.283a6.783 6.783 0 0 0 1.646-4.434 6.813 6.813 0 1 0-6.813 6.813 6.783 6.783 0 0 0 4.434-1.646l.283.294v.828l5.24 5.23 1.563-1.561-5.23-5.241zm-6.29 0a4.71 4.71 0 0 1-4.716-4.717 4.71 4.71 0 0 1 4.717-4.717 4.71 4.71 0 0 1 4.717 4.717 4.71 4.71 0 0 1-4.717 4.717z"/>
        <path d="M8 5h22v22H8z"/>
    </g>
</svg>
